<svg viewBox="0 0 400 600" xmlns="http://www.w3.org/2000/svg"><!--Exercise: Lat Pulldown - Bottom Position
    View: Front
    Primary Muscles: Latissimus Dorsi (92%), Biceps (70%), Rear Deltoid (55%), Rhomboids (60%)--><defs><linearGradient id="figureGrad" x1="0%" y1="0%" x2="0%" y2="100%"><stop offset="0%" stop-color="#475569"/><stop offset="100%" stop-color="#334155"/></linearGradient><linearGradient id="machineGrad" x1="0%" y1="0%" x2="0%" y2="100%"><stop offset="0%" stop-color="#3F3F46"/><stop offset="100%" stop-color="#27272A"/></linearGradient><linearGradient id="activationMax" x1="0%" y1="0%" x2="100%" y2="100%"><stop offset="0%" stop-color="#EF4444" stop-opacity="0.85"/><stop offset="100%" stop-color="#DC2626" stop-opacity="0.65"/></linearGradient><linearGradient id="activationHigh" x1="0%" y1="0%" x2="100%" y2="100%"><stop offset="0%" stop-color="#F97316" stop-opacity="0.75"/><stop offset="100%" stop-color="#EA580C" stop-opacity="0.55"/></linearGradient><linearGradient id="activationMed" x1="0%" y1="0%" x2="100%" y2="100%"><stop offset="0%" stop-color="#FB923C" stop-opacity="0.65"/><stop offset="100%" stop-color="#F97316" stop-opacity="0.45"/></linearGradient><linearGradient id="activationLow" x1="0%" y1="0%" x2="100%" y2="100%"><stop offset="0%" stop-color="#14B8A6" stop-opacity="0.55"/><stop offset="100%" stop-color="#0D9488" stop-opacity="0.35"/></linearGradient><filter id="muscleGlow" x="-50%" y="-50%" width="200%" height="200%"><feGaussianBlur stdDeviation="4" result="blur"/><feMerge><feMergeNode in="blur"/><feMergeNode in="SourceGraphic"/></feMerge></filter><filter id="softShadow" x="-20%" y="-20%" width="140%" height="140%"><feDropShadow dx="0" dy="2" stdDeviation="3" flood-color="#000" flood-opacity="0.3"/></filter></defs><!--LAT PULLDOWN MACHINE (Background)--><g id="machine" fill="url(#machineGrad)" stroke="#52525B" stroke-width="2"><!--Main vertical frame--><rect x="185" y="20" width="30" height="80" rx="5"/><!--Top horizontal bar support--><rect x="50" y="30" width="300" height="15" rx="4"/><!--Cable housing--><rect x="195" y="45" width="10" height="60" fill="#27272A"/><!--Pulley wheel--><circle cx="200" cy="55" r="12" fill="#52525B" stroke="#71717A"/><circle cx="200" cy="55" r="5" fill="#27272A"/><!--Cable (drawn pulled down)--><line x1="200" y1="67" x2="200" y2="140" stroke="#71717A" stroke-width="3"/><!--Seat--><rect x="140" y="440" width="120" height="20" rx="5" fill="#52525B"/><!--Thigh pad support--><rect x="130" y="400" width="140" height="15" rx="4" fill="#3F3F46"/><!--Machine base--><rect x="100" y="520" width="200" height="15" rx="3" fill="#27272A"/><!--Weight stack (side)--><g transform="translate(340, 100)"><rect x="0" y="0" width="25" height="15" fill="#1F1F23"/><rect x="0" y="18" width="25" height="15" fill="#1F1F23"/><rect x="0" y="36" width="25" height="15" fill="#1F1F23"/><rect x="0" y="54" width="25" height="15" fill="#3F3F46"/><rect x="0" y="72" width="25" height="15" fill="#3F3F46"/><rect x="0" y="90" width="25" height="15" fill="#3F3F46"/></g></g><!--WIDE GRIP BAR--><g id="bar" filter="url(#softShadow)"><!--Main bar--><path d="M 70 145 Q 130 135 200 140 Q 270 135 330 145" fill="none" stroke="#71717A" stroke-width="8" stroke-linecap="round"/><!--Angled ends--><path d="M 70 145 L 55 165" stroke="#71717A" stroke-width="6" stroke-linecap="round"/><path d="M 330 145 L 345 165" stroke="#71717A" stroke-width="6" stroke-linecap="round"/><!--Grip texture--><g stroke="#94A3B8" stroke-width="1" opacity="0.4"><line x1="90" y1="143" x2="90" y2="147"/><line x1="110" y1="141" x2="110" y2="145"/><line x1="290" y1="141" x2="290" y2="145"/><line x1="310" y1="143" x2="310" y2="147"/></g></g><!--MUSCLE ACTIVATION LAYER--><g id="muscles" opacity="0.85"><!--Latissimus Dorsi - PRIMARY (92%) - Wide spread visible from front--><path id="muscle-lats-left" data-muscle="latissimus-dorsi-left" data-activation="92" d="M 148 195 Q 125 210 110 260 Q 105 320 125 370 Q 155 385 168 350 Q 175 290 165 230 Q 160 200 148 195" fill="url(#activationMax)" filter="url(#muscleGlow)"><animate attributeName="opacity" values="0.8;0.95;0.8" dur="2s" repeatCount="indefinite"/></path><path id="muscle-lats-right" data-muscle="latissimus-dorsi-right" data-activation="92" d="M 252 195 Q 275 210 290 260 Q 295 320 275 370 Q 245 385 232 350 Q 225 290 235 230 Q 240 200 252 195" fill="url(#activationMax)" filter="url(#muscleGlow)"><animate attributeName="opacity" values="0.8;0.95;0.8" dur="2s" repeatCount="indefinite" begin="0.1s"/></path><!--Biceps - SECONDARY (70%)--><ellipse id="muscle-bicep-left" data-muscle="biceps-left" data-activation="70" cx="100" cy="220" rx="15" ry="32" fill="url(#activationHigh)" filter="url(#muscleGlow)" transform="rotate(25 100 220)"><animate attributeName="opacity" values="0.65;0.82;0.65" dur="2s" repeatCount="indefinite" begin="0.2s"/></ellipse><ellipse id="muscle-bicep-right" data-muscle="biceps-right" data-activation="70" cx="300" cy="220" rx="15" ry="32" fill="url(#activationHigh)" filter="url(#muscleGlow)" transform="rotate(-25 300 220)"><animate attributeName="opacity" values="0.65;0.82;0.65" dur="2s" repeatCount="indefinite" begin="0.3s"/></ellipse><!--Rhomboids (visible through back contraction)--><path id="muscle-rhomboids" data-muscle="rhomboids" data-activation="60" d="M 175 200 Q 200 195 225 200 Q 230 245 200 265 Q 170 245 175 200" fill="url(#activationMed)" filter="url(#muscleGlow)"/><!--Rear Deltoid--><ellipse id="muscle-rear-delt-left" data-muscle="posterior-deltoid-left" data-activation="55" cx="130" cy="190" rx="15" ry="18" fill="url(#activationMed)" filter="url(#muscleGlow)"/><ellipse id="muscle-rear-delt-right" data-muscle="posterior-deltoid-right" data-activation="55" cx="270" cy="190" rx="15" ry="18" fill="url(#activationMed)" filter="url(#muscleGlow)"/><!--Teres Major--><ellipse id="muscle-teres-left" data-muscle="teres-major-left" data-activation="50" cx="140" cy="210" rx="12" ry="20" fill="url(#activationLow)" filter="url(#muscleGlow)" transform="rotate(-20 140 210)"/><ellipse id="muscle-teres-right" data-muscle="teres-major-right" data-activation="50" cx="260" cy="210" rx="12" ry="20" fill="url(#activationLow)" filter="url(#muscleGlow)" transform="rotate(20 260 210)"/><!--Forearm Flexors (grip)--><ellipse id="muscle-forearm-left" data-muscle="forearm-flexors-left" data-activation="55" cx="72" cy="195" rx="10" ry="25" fill="url(#activationLow)" filter="url(#muscleGlow)" transform="rotate(40 72 195)"/><ellipse id="muscle-forearm-right" data-muscle="forearm-flexors-right" data-activation="55" cx="328" cy="195" rx="10" ry="25" fill="url(#activationLow)" filter="url(#muscleGlow)" transform="rotate(-40 328 195)"/><!--Core (stabilization)--><path id="muscle-core" data-muscle="rectus-abdominis" data-activation="35" d="M 182 300 Q 200 295 218 300 Q 222 345 218 390 Q 200 395 182 390 Q 178 345 182 300" fill="url(#activationLow)" filter="url(#muscleGlow)" opacity="0.4"/></g><!--FIGURE LAYER - Front View Lat Pulldown (Seated)--><g id="figure" fill="url(#figureGrad)" stroke="#64748B" stroke-width="1.5" filter="url(#softShadow)"><!--Head--><ellipse cx="200" cy="130" rx="30" ry="36"/><!--Neck--><rect x="186" y="163" width="28" height="22" rx="7"/><!--Shoulders (wide, pulled back)--><ellipse cx="130" cy="195" rx="25" ry="20"/><ellipse cx="270" cy="195" rx="25" ry="20"/><!--Upper Arms (angled down from wide grip)--><ellipse cx="105" cy="215" rx="16" ry="38" transform="rotate(30 105 215)"/><ellipse cx="295" cy="215" rx="16" ry="38" transform="rotate(-30 295 215)"/><!--Forearms (angled up to bar)--><ellipse cx="75" cy="180" rx="12" ry="32" transform="rotate(50 75 180)"/><ellipse cx="325" cy="180" rx="12" ry="32" transform="rotate(-50 325 180)"/><!--Hands (on bar)--><ellipse cx="58" cy="158" rx="14" ry="10" transform="rotate(45 58 158)"/><ellipse cx="342" cy="158" rx="14" ry="10" transform="rotate(-45 342 158)"/><!--Torso (seated, upright with slight lean back)--><path d="M 130 210 Q 115 225 120 260 Q 135 340 160 400 Q 185 420 200 420 Q 215 420 240 400 Q 265 340 280 260 Q 285 225 270 210 Q 200 180 130 210"/><!--Thighs (under pad, seated)--><ellipse cx="165" cy="450" rx="28" ry="25"/><ellipse cx="235" cy="450" rx="28" ry="25"/><!--Lower Legs (under machine)--><ellipse cx="160" cy="490" rx="18" ry="35"/><ellipse cx="240" cy="490" rx="18" ry="35"/></g><!--JOINT MARKERS--><g id="joints" fill="#94A3B8" opacity="0.5"><circle cx="200" cy="168" r="4"/><!--Neck--><circle cx="130" cy="195" r="4"/><!--Left shoulder--><circle cx="270" cy="195" r="4"/><!--Right shoulder--><circle cx="90" cy="245" r="3"/><!--Left elbow--><circle cx="310" cy="245" r="3"/><!--Right elbow--><circle cx="58" cy="158" r="3"/><!--Left wrist--><circle cx="342" cy="158" r="3"/><!--Right wrist--></g><!--MOVEMENT DIRECTION INDICATOR--><g id="movement-indicator" opacity="0.6"><path d="M 35 100 L 35 140 L 25 120 Z" fill="#14B8A6"/><path d="M 35 155 L 35 195 L 25 175 Z" fill="#14B8A6" opacity="0.4"/><text x="15" y="210" fill="#14B8A6" font-family="Inter, sans-serif" font-size="10">DOWN</text></g><!--LAT SPREAD INDICATOR--><g id="spread-indicator" opacity="0.4"><path d="M 150 250 Q 110 280 105 340" fill="none" stroke="#EF4444" stroke-width="1" stroke-dasharray="4,3"/><path d="M 250 250 Q 290 280 295 340" fill="none" stroke="#EF4444" stroke-width="1" stroke-dasharray="4,3"/></g></svg>