<svg viewBox="0 0 400 600" xmlns="http://www.w3.org/2000/svg"><!--Exercise: Leg Extension Machine - Top Position
    View: Side
    Primary Muscles: Quadriceps (95%) - Rectus Femoris, Vastus Lateralis, Vastus Medialis--><defs><linearGradient id="figureGrad" x1="0%" y1="0%" x2="0%" y2="100%"><stop offset="0%" stop-color="#475569"/><stop offset="100%" stop-color="#334155"/></linearGradient><linearGradient id="machineGrad" x1="0%" y1="0%" x2="0%" y2="100%"><stop offset="0%" stop-color="#3F3F46"/><stop offset="100%" stop-color="#27272A"/></linearGradient><linearGradient id="activationMax" x1="0%" y1="0%" x2="100%" y2="100%"><stop offset="0%" stop-color="#EF4444" stop-opacity="0.85"/><stop offset="100%" stop-color="#DC2626" stop-opacity="0.65"/></linearGradient><linearGradient id="activationHigh" x1="0%" y1="0%" x2="100%" y2="100%"><stop offset="0%" stop-color="#F97316" stop-opacity="0.75"/><stop offset="100%" stop-color="#EA580C" stop-opacity="0.55"/></linearGradient><linearGradient id="activationLow" x1="0%" y1="0%" x2="100%" y2="100%"><stop offset="0%" stop-color="#14B8A6" stop-opacity="0.55"/><stop offset="100%" stop-color="#0D9488" stop-opacity="0.35"/></linearGradient><filter id="muscleGlow" x="-50%" y="-50%" width="200%" height="200%"><feGaussianBlur stdDeviation="4" result="blur"/><feMerge><feMergeNode in="blur"/><feMergeNode in="SourceGraphic"/></feMerge></filter><filter id="softShadow" x="-20%" y="-20%" width="140%" height="140%"><feDropShadow dx="0" dy="2" stdDeviation="3" flood-color="#000" flood-opacity="0.3"/></filter></defs><!--LEG EXTENSION MACHINE--><g id="machine" fill="url(#machineGrad)" stroke="#52525B" stroke-width="2"><!--Seat back--><rect x="60" y="200" width="25" height="150" rx="5" transform="rotate(-15 72 275)"/><!--Seat cushion--><rect x="80" y="340" width="140" height="25" rx="6" fill="#52525B"/><!--Machine frame--><rect x="70" y="355" width="20" height="140" rx="3"/><rect x="200" y="355" width="20" height="140" rx="3"/><!--Base--><rect x="55" y="485" width="180" height="20" rx="4"/><!--Pivot mechanism--><circle cx="220" cy="380" r="15" fill="#52525B" stroke="#71717A"/><circle cx="220" cy="380" r="6" fill="#27272A"/><!--Lever arm (extended position - horizontal)--><rect x="220" y="374" width="120" height="12" rx="4" fill="#52525B"/><!--Ankle pad--><ellipse cx="335" cy="380" rx="20" ry="14" fill="#3F3F46"/><!--Weight stack--><g transform="translate(30, 250)"><rect x="0" y="0" width="25" height="12" fill="#1F1F23"/><rect x="0" y="15" width="25" height="12" fill="#1F1F23"/><rect x="0" y="30" width="25" height="12" fill="#3F3F46"/><rect x="0" y="45" width="25" height="12" fill="#3F3F46"/><rect x="0" y="60" width="25" height="12" fill="#3F3F46"/></g><!--Handles--><ellipse cx="95" cy="280" rx="10" ry="18" fill="#52525B" transform="rotate(-15 95 280)"/></g><!--MUSCLE ACTIVATION LAYER--><g id="muscles" opacity="0.85"><!--Rectus Femoris - PRIMARY (95%)--><path id="muscle-rectus-femoris" data-muscle="rectus-femoris" data-activation="95" d="M 200 320 Q 230 310 250 340 Q 265 400 250 455 Q 215 470 195 450 Q 180 400 200 320" fill="url(#activationMax)" filter="url(#muscleGlow)"><animate attributeName="opacity" values="0.85;0.98;0.85" dur="2s" repeatCount="indefinite"/></path><!--Vastus Lateralis - PRIMARY (95%)--><path id="muscle-vastus-lat" data-muscle="vastus-lateralis" data-activation="95" d="M 225 330 Q 260 320 280 355 Q 295 410 275 465 Q 240 480 220 455 Q 210 405 225 330" fill="url(#activationMax)" filter="url(#muscleGlow)"><animate attributeName="opacity" values="0.8;0.95;0.8" dur="2s" repeatCount="indefinite" begin="0.1s"/></path><!--Vastus Medialis - PRIMARY (95%)--><path id="muscle-vastus-med" data-muscle="vastus-medialis" data-activation="95" d="M 195 380 Q 215 375 225 400 Q 232 445 218 480 Q 195 490 185 470 Q 178 430 195 380" fill="url(#activationMax)" filter="url(#muscleGlow)"><animate attributeName="opacity" values="0.82;0.95;0.82" dur="2s" repeatCount="indefinite" begin="0.2s"/></path><!--Hip Flexors (stabilization)--><ellipse id="muscle-hip-flexors" data-muscle="hip-flexors" data-activation="35" cx="175" cy="310" rx="18" ry="25" fill="url(#activationLow)" filter="url(#muscleGlow)" opacity="0.5"/><!--Tibialis Anterior--><ellipse id="muscle-tibialis" data-muscle="tibialis-anterior" data-activation="30" cx="300" cy="420" rx="12" ry="30" fill="url(#activationLow)" filter="url(#muscleGlow)" opacity="0.4"/></g><!--FIGURE LAYER - Side View Leg Extension (seated, leg extended)--><g id="figure" fill="url(#figureGrad)" stroke="#64748B" stroke-width="1.5" filter="url(#softShadow)"><!--Head--><ellipse cx="120" cy="180" rx="30" ry="36" transform="rotate(-15 120 180)"/><!--Neck--><path d="M 135 210 Q 145 220 155 235 L 165 255 Q 148 268 135 250 Z"/><!--Upper Back (against back rest)--><path d="M 150 245 Q 175 230 195 250 Q 215 285 210 330 L 165 355 Q 145 315 150 245"/><!--Shoulder--><ellipse cx="165" cy="270" rx="22" ry="18" transform="rotate(-15 165 270)"/><!--Upper Arm--><ellipse cx="145" cy="305" rx="14" ry="35" transform="rotate(15 145 305)"/><!--Forearm (holding handle)--><ellipse cx="115" cy="295" rx="12" ry="28" transform="rotate(-20 115 295)"/><!--Hand--><ellipse cx="100" cy="280" rx="10" ry="14" transform="rotate(-15 100 280)"/><!--Torso (seated)--><path d="M 165 340 Q 195 328 215 350 Q 240 395 235 450 Q 220 475 195 480 Q 165 482 155 460 Q 150 410 165 340"/><!--Pelvis/Hip (on seat)--><path d="M 195 445 Q 230 435 255 465 Q 275 510 258 555 Q 220 575 190 555 Q 170 515 195 445"/><!--Thigh (horizontal on seat)--><path d="M 215 350 Q 250 340 280 360 Q 310 400 300 455 Q 260 475 225 455 Q 200 410 215 350"/><!--Knee (pivot point)--><ellipse cx="235" cy="480" rx="24" ry="20"/><!--Lower Leg (extended horizontally)--><path d="M 235 468 Q 270 455 320 458 Q 355 465 365 490 Q 360 515 320 515 Q 270 510 235 495 Q 230 482 235 468"/><!--Foot (behind ankle pad)--><ellipse cx="345" cy="400" rx="18" ry="28" transform="rotate(-10 345 400)"/></g><!--JOINT MARKERS--><g id="joints" fill="#94A3B8" opacity="0.5"><circle cx="140" cy="220" r="4"/><!--Neck--><circle cx="165" cy="270" r="4"/><!--Shoulder--><circle cx="120" cy="320" r="3"/><!--Elbow--><circle cx="210" cy="480" r="5"/><!--Hip--><circle cx="235" cy="480" r="4"/><!--Knee--><circle cx="345" cy="400" r="4"/><!--Ankle--></g><!--MOVEMENT ARC INDICATOR--><g id="movement-indicator" opacity="0.5"><path d="M 235 480 Q 290 420 345 400" fill="none" stroke="#14B8A6" stroke-width="2" stroke-dasharray="6,4"><animate attributeName="stroke-dashoffset" values="0;20" dur="1s" repeatCount="indefinite"/></path></g><!--CONTRACTION INDICATOR--><g id="contraction" opacity="0.5"><ellipse cx="240" cy="400" rx="45" ry="65" fill="none" stroke="#EF4444" stroke-width="2" stroke-dasharray="4,3"><animate attributeName="ry" values="60;70;60" dur="2s" repeatCount="indefinite"/><animate attributeName="opacity" values="0.7;0.3;0.7" dur="2s" repeatCount="indefinite"/></ellipse></g><!--EXTENSION LABEL--><text x="300" y="440" fill="#14B8A6" font-family="Inter, sans-serif" font-size="10" opacity="0.6">EXTEND</text></svg>