<svg viewBox="0 0 400 600" xmlns="http://www.w3.org/2000/svg"><!--Exercise: Incline Dumbbell Curl - Mid Position
    View: Side
    Primary Muscles: Biceps Long Head (98%), Brachialis (75%), Brachioradialis (60%)--><defs><linearGradient id="figureGrad" x1="0%" y1="0%" x2="0%" y2="100%"><stop offset="0%" stop-color="#475569"/><stop offset="100%" stop-color="#334155"/></linearGradient><linearGradient id="activationMax" x1="0%" y1="0%" x2="100%" y2="100%"><stop offset="0%" stop-color="#EF4444" stop-opacity="0.85"/><stop offset="100%" stop-color="#DC2626" stop-opacity="0.65"/></linearGradient><linearGradient id="activationHigh" x1="0%" y1="0%" x2="100%" y2="100%"><stop offset="0%" stop-color="#F97316" stop-opacity="0.75"/><stop offset="100%" stop-color="#EA580C" stop-opacity="0.55"/></linearGradient><linearGradient id="activationMed" x1="0%" y1="0%" x2="100%" y2="100%"><stop offset="0%" stop-color="#FB923C" stop-opacity="0.65"/><stop offset="100%" stop-color="#F97316" stop-opacity="0.45"/></linearGradient><linearGradient id="activationLow" x1="0%" y1="0%" x2="100%" y2="100%"><stop offset="0%" stop-color="#14B8A6" stop-opacity="0.55"/><stop offset="100%" stop-color="#0D9488" stop-opacity="0.35"/></linearGradient><filter id="muscleGlow" x="-50%" y="-50%" width="200%" height="200%"><feGaussianBlur stdDeviation="4" result="blur"/><feMerge><feMergeNode in="blur"/><feMergeNode in="SourceGraphic"/></feMerge></filter><filter id="softShadow" x="-20%" y="-20%" width="140%" height="140%"><feDropShadow dx="0" dy="2" stdDeviation="3" flood-color="#000" flood-opacity="0.3"/></filter></defs><!--INCLINE BENCH--><g id="equipment-bench" fill="#3F3F46" stroke="#52525B" stroke-width="2"><!--Back rest (inclined at 45 degrees)--><rect x="180" y="180" width="35" height="180" rx="5" transform="rotate(30 197 270)"/><!--Seat--><rect x="140" y="340" width="100" height="25" rx="5"/><!--Bench supports--><rect x="155" y="365" width="15" height="85" rx="3"/><rect x="220" y="365" width="15" height="85" rx="3"/><!--Base--><rect x="140" y="440" width="110" height="15" rx="4"/></g><!--MUSCLE ACTIVATION LAYER--><g id="muscles" opacity="0.85"><!--Biceps Long Head - PRIMARY (98%) - Maximum stretch position--><ellipse id="muscle-biceps-long" data-muscle="biceps-long-head" data-activation="98" cx="145" cy="295" rx="16" ry="45" fill="url(#activationMax)" filter="url(#muscleGlow)" transform="rotate(-15 145 295)"><animate attributeName="opacity" values="0.92;1;0.92" dur="2s" repeatCount="indefinite"/></ellipse><!--Brachialis - SECONDARY (75%)--><ellipse id="muscle-brachialis" data-muscle="brachialis" data-activation="75" cx="155" cy="310" rx="12" ry="30" fill="url(#activationHigh)" filter="url(#muscleGlow)" transform="rotate(-15 155 310)"><animate attributeName="opacity" values="0.72;0.88;0.72" dur="2s" repeatCount="indefinite" begin="0.1s"/></ellipse><!--Brachioradialis - TERTIARY (60%)--><ellipse id="muscle-brachioradialis" data-muscle="brachioradialis" data-activation="60" cx="145" cy="360" rx="10" ry="32" fill="url(#activationMed)" filter="url(#muscleGlow)" transform="rotate(-10 145 360)"/><!--Anterior Deltoid (stabilization)--><ellipse id="muscle-front-delt" data-muscle="anterior-deltoid" data-activation="35" cx="185" cy="230" rx="18" ry="22" fill="url(#activationLow)" filter="url(#muscleGlow)" opacity="0.45"/></g><!--FIGURE LAYER - Side View Incline Dumbbell Curl--><g id="figure" fill="url(#figureGrad)" stroke="#64748B" stroke-width="1.5" filter="url(#softShadow)"><!--Head (against incline)--><ellipse cx="235" cy="145" rx="28" ry="32" transform="rotate(15 235 145)"/><!--Neck--><path d="M 222 175 Q 215 190 220 210 L 248 215 Q 253 195 246 178 Q 240 178 235 178 Q 230 178 222 175"/><!--Shoulder--><ellipse cx="210" cy="240" rx="28" ry="24" transform="rotate(15 210 240)"/><!--Torso (reclined on incline bench)--><path d="M 195 255 Q 175 295 185 370 Q 210 435 245 475 Q 275 490 295 475 Q 335 430 345 360 Q 350 290 330 255 Q 265 235 195 255"/><!--Upper Arm (hanging back, stretched position)--><ellipse cx="155" cy="280" rx="18" ry="55" transform="rotate(-15 155 280)"/><!--Forearm (curling up)--><ellipse cx="140" cy="360" rx="14" ry="45" transform="rotate(-10 140 360)"/><!--Hand (gripping dumbbell)--><ellipse cx="135" cy="400" rx="12" ry="10" transform="rotate(-5 135 400)"/><!--Pelvis (on seat)--><path d="M 255 455 Q 295 440 325 475 Q 355 540 330 605 Q 288 640 250 618 Q 220 575 255 455"/><!--Thigh--><path d="M 305 565 Q 345 555 375 590 Q 405 655 390 720 Q 350 755 315 735 Q 285 680 305 565"/><!--Lower Leg--><path d="M 375 705 Q 402 700 420 735 Q 435 795 420 855 Q 390 880 360 860 Q 345 805 375 705"/><!--Foot--><ellipse cx="395" cy="870" rx="30" ry="12"/></g><!--DUMBBELL--><g id="equipment-dumbbell" filter="url(#softShadow)"><rect x="125" y="390" width="8" height="45" fill="#71717A" rx="4" transform="rotate(-5 129 412)"/><rect x="118" y="385" width="22" height="12" fill="#3F3F46" rx="3" transform="rotate(-5 129 391)"/><rect x="118" y="428" width="22" height="12" fill="#3F3F46" rx="3" transform="rotate(-5 129 434)"/></g><!--JOINT MARKERS--><g id="joints" fill="#94A3B8" opacity="0.5"><circle cx="230" cy="195" r="4"/><!--Neck--><circle cx="210" cy="240" r="4"/><!--Shoulder--><circle cx="155" cy="330" r="3"/><!--Elbow--><circle cx="135" cy="400" r="3"/><!--Wrist--><circle cx="290" cy="490" r="4"/><!--Hip--></g><!--STRETCH INDICATOR--><g id="stretch-indicator" opacity="0.4"><path d="M 155 240 L 155 330" fill="none" stroke="#14B8A6" stroke-width="1" stroke-dasharray="4,3"/><text x="110" y="280" fill="#14B8A6" font-family="Inter, sans-serif" font-size="8">full stretch</text></g><!--MOVEMENT INDICATOR--><g id="movement-indicator" opacity="0.5"><path d="M 135 400 Q 120 350 145 290" fill="none" stroke="#14B8A6" stroke-width="2" stroke-dasharray="6,4"><animate attributeName="stroke-dashoffset" values="0;-25" dur="1.2s" repeatCount="indefinite"/></path><text x="95" y="340" fill="#14B8A6" font-family="Inter, sans-serif" font-size="10">CURL</text></g><!--CONTRACTION INDICATOR--><g id="contraction" opacity="0.5"><ellipse cx="150" cy="310" rx="25" ry="55" fill="none" stroke="#EF4444" stroke-width="2" stroke-dasharray="4,3" transform="rotate(-15 150 310)"><animate attributeName="ry" values="50;60;50" dur="2s" repeatCount="indefinite"/><animate attributeName="opacity" values="0.7;0.3;0.7" dur="2s" repeatCount="indefinite"/></ellipse></g></svg>