<svg viewBox="0 0 400 600" xmlns="http://www.w3.org/2000/svg"><!--Exercise: Dumbbell Lateral Raise - Top Position
    View: Front
    Primary Muscles: Lateral Deltoid (95%), Anterior Deltoid (40%), Trapezius Upper (50%)--><defs><linearGradient id="figureGrad" x1="0%" y1="0%" x2="0%" y2="100%"><stop offset="0%" stop-color="#475569"/><stop offset="100%" stop-color="#334155"/></linearGradient><linearGradient id="activationMax" x1="0%" y1="0%" x2="100%" y2="100%"><stop offset="0%" stop-color="#EF4444" stop-opacity="0.85"/><stop offset="100%" stop-color="#DC2626" stop-opacity="0.65"/></linearGradient><linearGradient id="activationHigh" x1="0%" y1="0%" x2="100%" y2="100%"><stop offset="0%" stop-color="#F97316" stop-opacity="0.75"/><stop offset="100%" stop-color="#EA580C" stop-opacity="0.55"/></linearGradient><linearGradient id="activationMed" x1="0%" y1="0%" x2="100%" y2="100%"><stop offset="0%" stop-color="#FB923C" stop-opacity="0.65"/><stop offset="100%" stop-color="#F97316" stop-opacity="0.45"/></linearGradient><linearGradient id="activationLow" x1="0%" y1="0%" x2="100%" y2="100%"><stop offset="0%" stop-color="#14B8A6" stop-opacity="0.55"/><stop offset="100%" stop-color="#0D9488" stop-opacity="0.35"/></linearGradient><filter id="muscleGlow" x="-50%" y="-50%" width="200%" height="200%"><feGaussianBlur stdDeviation="4" result="blur"/><feMerge><feMergeNode in="blur"/><feMergeNode in="SourceGraphic"/></feMerge></filter><filter id="softShadow" x="-20%" y="-20%" width="140%" height="140%"><feDropShadow dx="0" dy="2" stdDeviation="3" flood-color="#000" flood-opacity="0.3"/></filter></defs><!--MUSCLE ACTIVATION LAYER--><g id="muscles" opacity="0.85"><!--Lateral Deltoid Left - PRIMARY (95%)--><ellipse id="muscle-lat-delt-left" data-muscle="lateral-deltoid-left" data-activation="95" cx="115" cy="180" rx="25" ry="30" fill="url(#activationMax)" filter="url(#muscleGlow)"><animate attributeName="opacity" values="0.85;0.98;0.85" dur="2s" repeatCount="indefinite"/></ellipse><!--Lateral Deltoid Right - PRIMARY (95%)--><ellipse id="muscle-lat-delt-right" data-muscle="lateral-deltoid-right" data-activation="95" cx="285" cy="180" rx="25" ry="30" fill="url(#activationMax)" filter="url(#muscleGlow)"><animate attributeName="opacity" values="0.85;0.98;0.85" dur="2s" repeatCount="indefinite" begin="0.1s"/></ellipse><!--Upper Trapezius - SECONDARY (50%)--><path id="muscle-traps-upper" data-muscle="trapezius-upper" data-activation="50" d="M 165 145 Q 200 130 235 145 Q 245 160 235 175 Q 200 185 165 175 Q 155 160 165 145" fill="url(#activationLow)" filter="url(#muscleGlow)"/><!--Anterior Deltoid Left - SECONDARY (40%)--><ellipse id="muscle-front-delt-left" data-muscle="anterior-deltoid-left" data-activation="40" cx="135" cy="190" rx="18" ry="22" fill="url(#activationLow)" filter="url(#muscleGlow)" opacity="0.6"/><!--Anterior Deltoid Right - SECONDARY (40%)--><ellipse id="muscle-front-delt-right" data-muscle="anterior-deltoid-right" data-activation="40" cx="265" cy="190" rx="18" ry="22" fill="url(#activationLow)" filter="url(#muscleGlow)" opacity="0.6"/><!--Supraspinatus (rotator cuff)--><ellipse id="muscle-supraspinatus-left" data-muscle="supraspinatus-left" data-activation="55" cx="130" cy="165" rx="15" ry="12" fill="url(#activationMed)" filter="url(#muscleGlow)" opacity="0.5"/><ellipse id="muscle-supraspinatus-right" data-muscle="supraspinatus-right" data-activation="55" cx="270" cy="165" rx="15" ry="12" fill="url(#activationMed)" filter="url(#muscleGlow)" opacity="0.5"/><!--Core (stabilization)--><path id="muscle-core" data-muscle="rectus-abdominis" data-activation="25" d="M 185 280 Q 200 275 215 280 Q 220 330 215 380 Q 200 385 185 380 Q 180 330 185 280" fill="url(#activationLow)" filter="url(#muscleGlow)" opacity="0.3"/></g><!--FIGURE LAYER - Front View Lateral Raise (arms up)--><g id="figure" fill="url(#figureGrad)" stroke="#64748B" stroke-width="1.5" filter="url(#softShadow)"><!--Head--><ellipse cx="200" cy="85" rx="32" ry="38"/><!--Neck--><rect x="186" y="120" width="28" height="22" rx="7"/><!--Trapezius--><path d="M 140 145 Q 170 135 200 140 Q 230 135 260 145 Q 275 165 270 185 L 130 185 Q 125 165 140 145"/><!--Shoulders (raised/engaged)--><ellipse cx="120" cy="185" rx="28" ry="24"/><ellipse cx="280" cy="185" rx="28" ry="24"/><!--Torso--><path d="M 130 200 Q 115 220 120 265 Q 135 345 165 415 Q 185 435 200 435 Q 215 435 235 415 Q 265 345 280 265 Q 285 220 270 200 Q 200 185 130 200"/><!--Left Upper Arm (raised to shoulder height)--><ellipse cx="85" cy="185" rx="38" ry="16"/><!--Right Upper Arm (raised to shoulder height)--><ellipse cx="315" cy="185" rx="38" ry="16"/><!--Left Forearm (slightly angled down)--><ellipse cx="48" cy="190" rx="32" ry="13" transform="rotate(-5 48 190)"/><!--Right Forearm (slightly angled down)--><ellipse cx="352" cy="190" rx="32" ry="13" transform="rotate(5 352 190)"/><!--Left Hand (holding dumbbell)--><ellipse cx="22" cy="195" rx="14" ry="12"/><!--Right Hand (holding dumbbell)--><ellipse cx="378" cy="195" rx="14" ry="12"/><!--Pelvis--><path d="M 165 415 Q 200 440 235 415 Q 248 455 232 490 Q 200 505 168 490 Q 152 455 165 415"/><!--Legs--><ellipse cx="178" cy="530" rx="25" ry="52"/><ellipse cx="222" cy="530" rx="25" ry="52"/><!--Lower Legs--><ellipse cx="176" cy="595" rx="16" ry="45"/><ellipse cx="224" cy="595" rx="16" ry="45"/></g><!--DUMBBELLS--><g id="equipment" filter="url(#softShadow)"><!--Left Dumbbell--><rect x="5" y="188" width="35" height="8" fill="#71717A" rx="4"/><rect x="0" y="181" width="12" height="22" fill="#3F3F46" rx="3"/><rect x="33" y="181" width="12" height="22" fill="#3F3F46" rx="3"/><!--Right Dumbbell--><rect x="360" y="188" width="35" height="8" fill="#71717A" rx="4"/><rect x="355" y="181" width="12" height="22" fill="#3F3F46" rx="3"/><rect x="388" y="181" width="12" height="22" fill="#3F3F46" rx="3"/></g><!--JOINT MARKERS--><g id="joints" fill="#94A3B8" opacity="0.5"><circle cx="200" cy="140" r="4"/><!--Neck--><circle cx="120" cy="185" r="4"/><!--Left shoulder--><circle cx="280" cy="185" r="4"/><!--Right shoulder--><circle cx="55" cy="185" r="3"/><!--Left elbow--><circle cx="345" cy="185" r="3"/><!--Right elbow--><circle cx="22" cy="195" r="3"/><!--Left wrist--><circle cx="378" cy="195" r="3"/><!--Right wrist--></g><!--ARM ANGLE INDICATOR--><g id="angle-indicator" opacity="0.4"><line x1="120" y1="185" x2="22" y2="185" stroke="#14B8A6" stroke-width="1" stroke-dasharray="4,3"/><line x1="280" y1="185" x2="378" y2="185" stroke="#14B8A6" stroke-width="1" stroke-dasharray="4,3"/><text x="70" y="170" fill="#14B8A6" font-family="Inter, sans-serif" font-size="9">parallel</text></g><!--MOVEMENT ARC INDICATORS--><g id="movement-indicator" opacity="0.5"><path d="M 120 280 Q 80 230 45 190" fill="none" stroke="#14B8A6" stroke-width="2" stroke-dasharray="6,4"><animate attributeName="stroke-dashoffset" values="20;0" dur="1s" repeatCount="indefinite"/></path><path d="M 280 280 Q 320 230 355 190" fill="none" stroke="#14B8A6" stroke-width="2" stroke-dasharray="6,4"><animate attributeName="stroke-dashoffset" values="20;0" dur="1s" repeatCount="indefinite"/></path></g><!--CONTRACTION INDICATORS--><g id="contraction" opacity="0.5"><circle cx="115" cy="180" r="30" fill="none" stroke="#EF4444" stroke-width="2" stroke-dasharray="4,3"><animate attributeName="r" values="25;35;25" dur="2s" repeatCount="indefinite"/><animate attributeName="opacity" values="0.7;0.3;0.7" dur="2s" repeatCount="indefinite"/></circle><circle cx="285" cy="180" r="30" fill="none" stroke="#EF4444" stroke-width="2" stroke-dasharray="4,3"><animate attributeName="r" values="25;35;25" dur="2s" repeatCount="indefinite" begin="0.1s"/><animate attributeName="opacity" values="0.7;0.3;0.7" dur="2s" repeatCount="indefinite" begin="0.1s"/></circle></g></svg>