<svg viewBox="0 0 400 600" xmlns="http://www.w3.org/2000/svg"><!--Exercise: Incline Barbell Bench Press - Bottom Position
    View: Side
    Primary Muscles: Upper Pectoralis Major (90%), Anterior Deltoid (75%), Triceps (65%)--><defs><linearGradient id="figureGrad" x1="0%" y1="0%" x2="0%" y2="100%"><stop offset="0%" stop-color="#475569"/><stop offset="100%" stop-color="#334155"/></linearGradient><linearGradient id="activationMax" x1="0%" y1="0%" x2="100%" y2="100%"><stop offset="0%" stop-color="#EF4444" stop-opacity="0.85"/><stop offset="100%" stop-color="#DC2626" stop-opacity="0.65"/></linearGradient><linearGradient id="activationHigh" x1="0%" y1="0%" x2="100%" y2="100%"><stop offset="0%" stop-color="#F97316" stop-opacity="0.75"/><stop offset="100%" stop-color="#EA580C" stop-opacity="0.55"/></linearGradient><linearGradient id="activationMed" x1="0%" y1="0%" x2="100%" y2="100%"><stop offset="0%" stop-color="#FB923C" stop-opacity="0.65"/><stop offset="100%" stop-color="#F97316" stop-opacity="0.45"/></linearGradient><linearGradient id="activationLow" x1="0%" y1="0%" x2="100%" y2="100%"><stop offset="0%" stop-color="#14B8A6" stop-opacity="0.55"/><stop offset="100%" stop-color="#0D9488" stop-opacity="0.35"/></linearGradient><filter id="muscleGlow" x="-50%" y="-50%" width="200%" height="200%"><feGaussianBlur stdDeviation="4" result="blur"/><feMerge><feMergeNode in="blur"/><feMergeNode in="SourceGraphic"/></feMerge></filter><filter id="softShadow" x="-20%" y="-20%" width="140%" height="140%"><feDropShadow dx="0" dy="2" stdDeviation="3" flood-color="#000" flood-opacity="0.3"/></filter></defs><!--INCLINE BENCH--><g id="equipment-bench" fill="#3F3F46" stroke="#52525B" stroke-width="2"><!--Back rest (inclined ~30-45 degrees)--><rect x="80" y="180" width="30" height="160" rx="5" transform="rotate(-35 95 260)"/><!--Seat--><rect x="140" y="330" width="100" height="25" rx="5"/><!--Bench frame--><rect x="90" y="345" width="15" height="110" rx="3"/><rect x="225" y="345" width="15" height="110" rx="3"/><!--Base--><rect x="75" y="445" width="180" height="15" rx="4"/><!--Rack uprights--><rect x="55" y="100" width="15" height="200" rx="3"/><rect x="55" y="90" width="15" height="20" rx="2"/><!--J-hooks--><path d="M 70 130 L 90 130 L 90 145 L 75 145" fill="#52525B" stroke="#71717A"/></g><!--MUSCLE ACTIVATION LAYER--><g id="muscles" opacity="0.85"><!--Upper Pectoralis Major (Clavicular Head) - PRIMARY (90%)--><path id="muscle-upper-chest" data-muscle="pectoralis-major-clavicular" data-activation="90" d="M 175 215 Q 200 205 215 225 Q 225 265 210 300 Q 185 310 172 290 Q 162 255 175 215" fill="url(#activationMax)" filter="url(#muscleGlow)"><animate attributeName="opacity" values="0.82;0.95;0.82" dur="2s" repeatCount="indefinite"/></path><!--Anterior Deltoid - SECONDARY (75%)--><ellipse id="muscle-front-delt" data-muscle="anterior-deltoid" data-activation="75" cx="165" cy="225" rx="20" ry="25" fill="url(#activationHigh)" filter="url(#muscleGlow)" transform="rotate(-35 165 225)"><animate attributeName="opacity" values="0.7;0.85;0.7" dur="2s" repeatCount="indefinite" begin="0.15s"/></ellipse><!--Triceps - SECONDARY (65%)--><ellipse id="muscle-triceps" data-muscle="triceps" data-activation="65" cx="140" cy="265" rx="15" ry="35" fill="url(#activationMed)" filter="url(#muscleGlow)" transform="rotate(35 140 265)"/><!--Lower Pectoralis (less activation on incline)--><path id="muscle-lower-chest" data-muscle="pectoralis-major-sternal" data-activation="55" d="M 185 290 Q 205 285 215 305 Q 220 340 205 365 Q 180 375 170 355 Q 165 320 185 290" fill="url(#activationMed)" filter="url(#muscleGlow)" opacity="0.6"/><!--Serratus Anterior--><path id="muscle-serratus" data-muscle="serratus-anterior" data-activation="40" d="M 195 320 Q 210 315 218 335 Q 222 365 212 390 Q 198 395 192 375 Z" fill="url(#activationLow)" filter="url(#muscleGlow)" opacity="0.5"/><!--Core (stabilization)--><path id="muscle-core" data-muscle="rectus-abdominis" data-activation="30" d="M 200 360 Q 218 355 225 375 Q 232 420 225 460 Q 208 472 198 465 Q 188 420 200 360" fill="url(#activationLow)" filter="url(#muscleGlow)" opacity="0.4"/></g><!--FIGURE LAYER - Side View Incline Bench Press--><g id="figure" fill="url(#figureGrad)" stroke="#64748B" stroke-width="1.5" filter="url(#softShadow)"><!--Head (on inclined back rest)--><ellipse cx="115" cy="185" rx="28" ry="32" transform="rotate(-35 115 185)"/><!--Neck--><path d="M 135 200 Q 150 210 160 230 L 172 255 Q 155 268 140 248 Z"/><!--Upper Back/Shoulders (on incline)--><path d="M 155 245 Q 185 225 210 255 Q 235 300 225 360 L 175 390 Q 150 340 155 245"/><!--Shoulder--><ellipse cx="170" cy="265" rx="24" ry="20" transform="rotate(-35 170 265)"/><!--Upper Arm (flared out, elbow down)--><ellipse cx="145" cy="275" rx="18" ry="42" transform="rotate(45 145 275)"/><!--Forearm (angled up to bar)--><ellipse cx="115" cy="230" rx="14" ry="38" transform="rotate(75 115 230)"/><!--Hand (gripping bar)--><ellipse cx="95" cy="195" rx="14" ry="11" transform="rotate(75 95 195)"/><!--Torso (on inclined bench)--><path d="M 175 370 Q 210 355 235 385 Q 265 445 255 510 Q 230 540 200 545 Q 170 545 160 515 Q 155 460 175 370"/><!--Pelvis (on seat)--><path d="M 200 500 Q 240 485 265 520 Q 285 575 265 630 Q 225 655 190 635 Q 165 590 200 500"/><!--Thigh--><path d="M 230 600 Q 265 590 295 625 Q 325 680 310 740 Q 270 765 235 745 Q 215 695 230 600"/><!--Lower Leg--><path d="M 290 730 Q 310 750 315 805 Q 318 860 310 905 Q 285 920 260 910 Q 250 865 255 810 Q 262 760 280 740 Q 285 732 290 730"/><!--Foot--><path d="M 255 900 Q 230 908 220 930 Q 218 955 245 968 Q 305 975 345 962 Q 360 945 350 920 Q 335 908 255 900"/></g><!--BARBELL--><g id="equipment-barbell" filter="url(#softShadow)"><!--Bar--><rect x="60" y="180" width="100" height="10" fill="#71717A" rx="5" transform="rotate(75 110 185)"/><!--Plates (visible side)--><rect x="30" y="130" width="28" height="40" fill="#3F3F46" rx="5" transform="rotate(75 44 150)"/><rect x="15" y="115" width="22" height="32" fill="#52525B" rx="4" transform="rotate(75 26 131)"/><!--Grip texture--><g stroke="#94A3B8" stroke-width="1" opacity="0.4"><line x1="80" y1="192" x2="85" y2="175" transform="rotate(75 82 183)"/><line x1="95" y1="198" x2="100" y2="181" transform="rotate(75 97 189)"/></g></g><!--JOINT MARKERS--><g id="joints" fill="#94A3B8" opacity="0.5"><circle cx="130" cy="205" r="4"/><!--Neck--><circle cx="170" cy="265" r="4"/><!--Shoulder--><circle cx="130" cy="295" r="3"/><!--Elbow--><circle cx="95" cy="195" r="3"/><!--Wrist--><circle cx="220" cy="540" r="4"/><!--Hip--><circle cx="280" cy="735" r="4"/><!--Knee--></g><!--MOVEMENT INDICATOR--><g id="movement-indicator" opacity="0.6"><path d="M 55 140 L 75 100 L 65 120 Z" fill="#14B8A6" transform="rotate(75 65 120)"/><text x="40" y="95" fill="#14B8A6" font-family="Inter, sans-serif" font-size="10">PRESS</text></g><!--INCLINE ANGLE INDICATOR--><g id="angle-indicator" opacity="0.4"><line x1="95" y1="340" x2="95" y2="180" stroke="#14B8A6" stroke-width="1" stroke-dasharray="4,3"/><path d="M 95 300 Q 115 300 130 260" fill="none" stroke="#14B8A6" stroke-width="1"/><text x="135" y="285" fill="#14B8A6" font-family="Inter, sans-serif" font-size="9">30-45°</text></g><!--CONTRACTION INDICATOR--><g id="contraction" opacity="0.5"><ellipse cx="190" cy="260" rx="35" ry="50" fill="none" stroke="#EF4444" stroke-width="2" stroke-dasharray="4,3" transform="rotate(-35 190 260)"><animate attributeName="rx" values="30;40;30" dur="2s" repeatCount="indefinite"/><animate attributeName="opacity" values="0.7;0.3;0.7" dur="2s" repeatCount="indefinite"/></ellipse></g></svg>