<svg viewBox="0 0 400 600" xmlns="http://www.w3.org/2000/svg"><!--Body Type: Adult Male
    View: Side (Right-facing)
    Purpose: Anatomical reference with muscle activation overlay capability
    Proportions: 8-head canon--><defs><linearGradient id="figureGrad" x1="0%" y1="0%" x2="0%" y2="100%"><stop offset="0%" stop-color="#475569"/><stop offset="100%" stop-color="#334155"/></linearGradient><linearGradient id="activationMax" x1="0%" y1="0%" x2="100%" y2="100%"><stop offset="0%" stop-color="#EF4444" stop-opacity="0.85"/><stop offset="100%" stop-color="#DC2626" stop-opacity="0.65"/></linearGradient><linearGradient id="activationHigh" x1="0%" y1="0%" x2="100%" y2="100%"><stop offset="0%" stop-color="#F97316" stop-opacity="0.75"/><stop offset="100%" stop-color="#EA580C" stop-opacity="0.55"/></linearGradient><linearGradient id="activationMed" x1="0%" y1="0%" x2="100%" y2="100%"><stop offset="0%" stop-color="#FB923C" stop-opacity="0.65"/><stop offset="100%" stop-color="#F97316" stop-opacity="0.45"/></linearGradient><linearGradient id="activationLow" x1="0%" y1="0%" x2="100%" y2="100%"><stop offset="0%" stop-color="#14B8A6" stop-opacity="0.55"/><stop offset="100%" stop-color="#0D9488" stop-opacity="0.35"/></linearGradient><filter id="muscleGlow" x="-50%" y="-50%" width="200%" height="200%"><feGaussianBlur stdDeviation="4" result="blur"/><feMerge><feMergeNode in="blur"/><feMergeNode in="SourceGraphic"/></feMerge></filter><filter id="softShadow" x="-20%" y="-20%" width="140%" height="140%"><feDropShadow dx="0" dy="2" stdDeviation="3" flood-color="#000" flood-opacity="0.3"/></filter></defs><!--MUSCLE LAYER - Side View--><g id="muscles" opacity="0" class="muscle-layer"><!--Trapezius (upper back/neck)--><path id="muscle-trapezius-side" class="muscle" data-muscle="trapezius" d="M 185 120 Q 210 110 225 130 Q 235 155 220 175 Q 200 180 185 165 Q 175 145 185 120" fill="url(#activationMed)" filter="url(#muscleGlow)"/><!--Deltoid (visible from side)--><ellipse id="muscle-deltoid-side" class="muscle" data-muscle="deltoid" cx="165" cy="175" rx="28" ry="22" fill="url(#activationHigh)" filter="url(#muscleGlow)"/><!--Pectoralis Major (chest, side profile)--><path id="muscle-chest-side" class="muscle" data-muscle="pectoralis-major" d="M 175 185 Q 195 180 205 200 Q 210 230 195 250 Q 175 255 165 240 Q 160 215 175 185" fill="url(#activationHigh)" filter="url(#muscleGlow)"/><!--Latissimus Dorsi (side of back)--><path id="muscle-lats-side" class="muscle" data-muscle="latissimus-dorsi" d="M 220 200 Q 240 210 245 250 Q 248 290 235 330 Q 215 340 205 310 Q 200 260 220 200" fill="url(#activationMax)" filter="url(#muscleGlow)"/><!--Biceps--><ellipse id="muscle-biceps-side" class="muscle" data-muscle="biceps" cx="140" cy="215" rx="15" ry="32" fill="url(#activationHigh)" filter="url(#muscleGlow)" transform="rotate(-15 140 215)"/><!--Triceps--><ellipse id="muscle-triceps-side" class="muscle" data-muscle="triceps" cx="158" cy="220" rx="14" ry="35" fill="url(#activationHigh)" filter="url(#muscleGlow)" transform="rotate(-10 158 220)"/><!--Forearm Flexors--><ellipse id="muscle-forearm-side" class="muscle" data-muscle="forearm-flexors" cx="120" cy="280" rx="12" ry="35" fill="url(#activationMed)" filter="url(#muscleGlow)" transform="rotate(-5 120 280)"/><!--Rectus Abdominis--><path id="muscle-abs-side" class="muscle" data-muscle="rectus-abdominis" d="M 185 260 Q 200 255 205 270 Q 210 320 205 370 Q 195 380 185 375 Q 180 330 185 260" fill="url(#activationMed)" filter="url(#muscleGlow)"/><!--External Obliques--><path id="muscle-obliques-side" class="muscle" data-muscle="external-obliques" d="M 205 280 Q 218 275 225 295 Q 228 340 220 370 Q 210 378 205 365 Q 202 320 205 280" fill="url(#activationLow)" filter="url(#muscleGlow)"/><!--Erector Spinae--><path id="muscle-erector-side" class="muscle" data-muscle="erector-spinae" d="M 225 200 Q 235 205 238 230 Q 242 290 238 350 Q 232 370 225 365 Q 220 300 225 200" fill="url(#activationMed)" filter="url(#muscleGlow)"/><!--Gluteus Maximus--><path id="muscle-glutes-side" class="muscle" data-muscle="gluteus-maximus" d="M 220 375 Q 255 370 265 400 Q 270 440 250 460 Q 220 465 210 440 Q 205 400 220 375" fill="url(#activationMax)" filter="url(#muscleGlow)"/><!--Quadriceps (side view)--><path id="muscle-quads-side" class="muscle" data-muscle="quadriceps" d="M 180 420 Q 200 410 210 430 Q 220 480 215 530 Q 195 545 180 535 Q 170 485 180 420" fill="url(#activationMax)" filter="url(#muscleGlow)"/><!--Hamstrings (visible from side)--><path id="muscle-hamstrings-side" class="muscle" data-muscle="hamstrings" d="M 220 445 Q 240 440 245 470 Q 248 510 240 545 Q 225 555 215 540 Q 212 500 220 445" fill="url(#activationHigh)" filter="url(#muscleGlow)"/><!--Gastrocnemius (calf)--><ellipse id="muscle-calf-side" class="muscle" data-muscle="gastrocnemius" cx="225" cy="570" rx="18" ry="40" fill="url(#activationHigh)" filter="url(#muscleGlow)" transform="rotate(5 225 570)"/><!--Tibialis Anterior--><ellipse id="muscle-tibialis-side" class="muscle" data-muscle="tibialis-anterior" cx="195" cy="570" rx="12" ry="35" fill="url(#activationLow)" filter="url(#muscleGlow)"/></g><!--FIGURE LAYER - Side View Male Body--><g id="figure" fill="url(#figureGrad)" stroke="#64748B" stroke-width="1.5" filter="url(#softShadow)"><!--Head--><ellipse cx="200" cy="70" rx="35" ry="42"/><!--Ear--><ellipse cx="225" cy="70" rx="8" ry="14"/><!--Neck--><path d="M 185 105 Q 180 115 185 130 L 215 130 Q 225 115 220 105 Q 210 108 200 108 Q 190 108 185 105"/><!--Trapezius/Upper Back--><path d="M 215 130 Q 235 140 240 160 Q 245 180 235 195 L 215 185 Q 220 165 215 130"/><!--Shoulder--><ellipse cx="170" cy="175" rx="30" ry="25"/><!--Chest--><path d="M 170 185 Q 205 175 215 185 Q 230 200 225 235 Q 215 265 195 280 Q 175 285 165 265 Q 155 235 170 185"/><!--Upper Back--><path d="M 215 185 Q 235 195 245 235 Q 250 280 245 330 Q 235 360 225 375 L 215 375 Q 225 340 228 280 Q 230 230 215 185"/><!--Abdomen--><path d="M 195 280 Q 215 275 225 290 Q 232 340 225 375 L 195 385 Q 185 340 195 280"/><!--Lower Back/Hip--><path d="M 225 375 Q 245 380 260 410 Q 268 450 255 475 Q 235 480 215 475 Q 200 455 195 430 Q 192 400 195 385 L 225 375"/><!--Glutes--><path d="M 225 400 Q 265 395 270 435 Q 272 475 250 495 Q 225 500 215 480 Q 210 445 225 400"/><!--Upper Arm--><ellipse cx="145" cy="215" rx="18" ry="45" transform="rotate(-15 145 215)"/><!--Elbow--><circle cx="125" cy="260" r="12"/><!--Forearm--><ellipse cx="115" cy="305" rx="14" ry="40" transform="rotate(-5 115 305)"/><!--Hand--><ellipse cx="105" cy="360" rx="12" ry="22"/><!--Thigh--><path d="M 195 430 Q 175 440 170 480 Q 168 530 175 570 Q 200 580 225 570 Q 245 530 248 480 Q 250 445 235 430 Q 215 420 195 430"/><!--Knee--><ellipse cx="200" cy="575" rx="22" ry="18"/><!--Lower Leg--><path d="M 180 585 Q 170 600 175 650 Q 180 700 185 730 Q 200 740 225 735 Q 245 710 248 650 Q 250 600 235 585 Q 210 580 180 585"/><!--Ankle--><ellipse cx="210" cy="735" rx="18" ry="12"/><!--Foot--><path d="M 185 740 Q 160 745 150 755 Q 145 770 160 780 Q 200 785 230 775 Q 240 760 230 745 Q 220 740 185 740"/></g><!--JOINT MARKERS--><g id="joints" fill="#94A3B8" opacity="0.5"><circle cx="200" cy="130" r="4"/><!--Neck--><circle cx="170" cy="175" r="4"/><!--Shoulder--><circle cx="125" cy="260" r="4"/><!--Elbow--><circle cx="105" cy="345" r="3"/><!--Wrist--><circle cx="215" cy="420" r="5"/><!--Hip--><circle cx="200" cy="575" r="4"/><!--Knee--><circle cx="210" cy="735" r="4"/><!--Ankle--></g><!--POSTURE LINE--><line id="posture" x1="200" y1="30" x2="210" y2="780" stroke="#14B8A6" stroke-width="1" stroke-dasharray="6,4" opacity="0.3"/></svg>