<svg viewBox="0 0 400 600" xmlns="http://www.w3.org/2000/svg"><defs><!--Figure gradients--><linearGradient id="figureGrad" x1="0%" y1="0%" x2="0%" y2="100%"><stop offset="0%" stop-color="#475569"/><stop offset="100%" stop-color="#334155"/></linearGradient><!--Muscle activation gradients--><linearGradient id="activationHigh" x1="0%" y1="0%" x2="100%" y2="100%"><stop offset="0%" stop-color="#EF4444" stop-opacity="0.8"/><stop offset="100%" stop-color="#DC2626" stop-opacity="0.6"/></linearGradient><linearGradient id="activationMed" x1="0%" y1="0%" x2="100%" y2="100%"><stop offset="0%" stop-color="#F97316" stop-opacity="0.7"/><stop offset="100%" stop-color="#EA580C" stop-opacity="0.5"/></linearGradient><linearGradient id="activationLow" x1="0%" y1="0%" x2="100%" y2="100%"><stop offset="0%" stop-color="#14B8A6" stop-opacity="0.6"/><stop offset="100%" stop-color="#0D9488" stop-opacity="0.4"/></linearGradient><linearGradient id="activationMin" x1="0%" y1="0%" x2="100%" y2="100%"><stop offset="0%" stop-color="#0D7377" stop-opacity="0.4"/><stop offset="100%" stop-color="#065F5F" stop-opacity="0.2"/></linearGradient><!--Glow filter--><filter id="muscleGlow" x="-50%" y="-50%" width="200%" height="200%"><feGaussianBlur stdDeviation="4" result="blur"/><feMerge><feMergeNode in="blur"/><feMergeNode in="SourceGraphic"/></feMerge></filter><!--Soft shadow--><filter id="softShadow" x="-20%" y="-20%" width="140%" height="140%"><feDropShadow dx="0" dy="2" stdDeviation="3" flood-color="#000" flood-opacity="0.3"/></filter></defs><!--MUSCLE LAYER - Back View--><g id="muscles" opacity="0" class="muscle-layer"><!--Trapezius Upper--><path id="muscle-trap-upper" class="muscle" data-muscle="trapezius-upper" d="M 170 130 Q 200 120 230 130 Q 240 145 230 160 L 200 165 L 170 160 Q 160 145 170 130" fill="url(#activationMed)" filter="url(#muscleGlow)"/><!--Trapezius Middle--><path id="muscle-trap-middle" class="muscle" data-muscle="trapezius-middle" d="M 165 160 Q 200 155 235 160 Q 238 180 235 200 L 200 205 L 165 200 Q 162 180 165 160" fill="url(#activationMed)" filter="url(#muscleGlow)"/><!--Trapezius Lower--><path id="muscle-trap-lower" class="muscle" data-muscle="trapezius-lower" d="M 175 200 Q 200 195 225 200 Q 220 230 200 240 Q 180 230 175 200" fill="url(#activationLow)" filter="url(#muscleGlow)"/><!--Posterior Deltoids--><ellipse id="muscle-rear-delt-left" class="muscle" data-muscle="posterior-deltoid-left" cx="145" cy="175" rx="18" ry="25" fill="url(#activationMed)" filter="url(#muscleGlow)"/><ellipse id="muscle-rear-delt-right" class="muscle" data-muscle="posterior-deltoid-right" cx="255" cy="175" rx="18" ry="25" fill="url(#activationMed)" filter="url(#muscleGlow)"/><!--Rhomboids--><path id="muscle-rhomboids" class="muscle" data-muscle="rhomboids" d="M 175 175 Q 200 170 225 175 Q 225 210 200 220 Q 175 210 175 175" fill="url(#activationMed)" filter="url(#muscleGlow)"/><!--Latissimus Dorsi--><path id="muscle-lats-left" class="muscle" data-muscle="latissimus-dorsi-left" d="M 145 195 Q 160 190 175 200 Q 175 260 165 310 Q 150 300 140 250 Q 135 220 145 195" fill="url(#activationHigh)" filter="url(#muscleGlow)"/><path id="muscle-lats-right" class="muscle" data-muscle="latissimus-dorsi-right" d="M 255 195 Q 240 190 225 200 Q 225 260 235 310 Q 250 300 260 250 Q 265 220 255 195" fill="url(#activationHigh)" filter="url(#muscleGlow)"/><!--Teres Major--><ellipse id="muscle-teres-major-left" class="muscle" data-muscle="teres-major-left" cx="148" cy="200" rx="12" ry="18" fill="url(#activationLow)" filter="url(#muscleGlow)"/><ellipse id="muscle-teres-major-right" class="muscle" data-muscle="teres-major-right" cx="252" cy="200" rx="12" ry="18" fill="url(#activationLow)" filter="url(#muscleGlow)"/><!--Infraspinatus--><ellipse id="muscle-infraspinatus-left" class="muscle" data-muscle="infraspinatus-left" cx="155" cy="185" rx="15" ry="12" fill="url(#activationMin)" filter="url(#muscleGlow)"/><ellipse id="muscle-infraspinatus-right" class="muscle" data-muscle="infraspinatus-right" cx="245" cy="185" rx="15" ry="12" fill="url(#activationMin)" filter="url(#muscleGlow)"/><!--Triceps--><ellipse id="muscle-tricep-left" class="muscle" data-muscle="triceps-left" cx="120" cy="245" rx="16" ry="40" fill="url(#activationMed)" filter="url(#muscleGlow)"/><ellipse id="muscle-tricep-right" class="muscle" data-muscle="triceps-right" cx="280" cy="245" rx="16" ry="40" fill="url(#activationMed)" filter="url(#muscleGlow)"/><!--Erector Spinae--><path id="muscle-erector-left" class="muscle" data-muscle="erector-spinae-left" d="M 185 230 Q 195 225 200 235 Q 198 300 195 340 Q 185 335 183 280 Q 182 250 185 230" fill="url(#activationLow)" filter="url(#muscleGlow)"/><path id="muscle-erector-right" class="muscle" data-muscle="erector-spinae-right" d="M 215 230 Q 205 225 200 235 Q 202 300 205 340 Q 215 335 217 280 Q 218 250 215 230" fill="url(#activationLow)" filter="url(#muscleGlow)"/><!--Gluteus Maximus--><path id="muscle-glute-left" class="muscle" data-muscle="gluteus-maximus-left" d="M 155 350 Q 175 340 200 350 Q 195 390 180 405 Q 155 400 150 375 Q 150 360 155 350" fill="url(#activationHigh)" filter="url(#muscleGlow)"/><path id="muscle-glute-right" class="muscle" data-muscle="gluteus-maximus-right" d="M 245 350 Q 225 340 200 350 Q 205 390 220 405 Q 245 400 250 375 Q 250 360 245 350" fill="url(#activationHigh)" filter="url(#muscleGlow)"/><!--Gluteus Medius--><path id="muscle-glute-med-left" class="muscle" data-muscle="gluteus-medius-left" d="M 145 340 Q 165 330 175 345 Q 170 365 155 370 Q 142 360 145 340" fill="url(#activationMed)" filter="url(#muscleGlow)"/><path id="muscle-glute-med-right" class="muscle" data-muscle="gluteus-medius-right" d="M 255 340 Q 235 330 225 345 Q 230 365 245 370 Q 258 360 255 340" fill="url(#activationMed)" filter="url(#muscleGlow)"/><!--Hamstrings - Biceps Femoris--><path id="muscle-hamstring-bf-left" class="muscle" data-muscle="biceps-femoris-left" d="M 160 405 Q 175 400 180 415 Q 175 465 170 495 Q 155 490 155 450 Q 155 420 160 405" fill="url(#activationHigh)" filter="url(#muscleGlow)"/><path id="muscle-hamstring-bf-right" class="muscle" data-muscle="biceps-femoris-right" d="M 240 405 Q 225 400 220 415 Q 225 465 230 495 Q 245 490 245 450 Q 245 420 240 405" fill="url(#activationHigh)" filter="url(#muscleGlow)"/><!--Hamstrings - Semitendinosus--><path id="muscle-hamstring-st-left" class="muscle" data-muscle="semitendinosus-left" d="M 180 410 Q 190 405 195 420 Q 190 460 185 490 Q 175 485 175 450 Q 175 425 180 410" fill="url(#activationMed)" filter="url(#muscleGlow)"/><path id="muscle-hamstring-st-right" class="muscle" data-muscle="semitendinosus-right" d="M 220 410 Q 210 405 205 420 Q 210 460 215 490 Q 225 485 225 450 Q 225 425 220 410" fill="url(#activationMed)" filter="url(#muscleGlow)"/><!--Gastrocnemius (Calves)--><ellipse id="muscle-calf-lat-left" class="muscle" data-muscle="gastrocnemius-lateral-left" cx="165" cy="520" rx="14" ry="35" fill="url(#activationMed)" filter="url(#muscleGlow)"/><ellipse id="muscle-calf-med-left" class="muscle" data-muscle="gastrocnemius-medial-left" cx="178" cy="520" rx="12" ry="32" fill="url(#activationMed)" filter="url(#muscleGlow)"/><ellipse id="muscle-calf-lat-right" class="muscle" data-muscle="gastrocnemius-lateral-right" cx="235" cy="520" rx="14" ry="35" fill="url(#activationMed)" filter="url(#muscleGlow)"/><ellipse id="muscle-calf-med-right" class="muscle" data-muscle="gastrocnemius-medial-right" cx="222" cy="520" rx="12" ry="32" fill="url(#activationMed)" filter="url(#muscleGlow)"/></g><!--FIGURE LAYER - Male Back View--><g id="figure" fill="url(#figureGrad)" stroke="#64748B" stroke-width="1.5" filter="url(#softShadow)"><!--Head--><ellipse cx="200" cy="65" rx="38" ry="45"/><!--Neck--><path d="M 180 105 Q 200 100 220 105 L 225 140 Q 200 145 175 140 Z"/><!--Trapezius--><path d="M 145 140 Q 175 135 200 140 Q 225 135 255 140 Q 265 160 260 180 L 140 180 Q 135 160 145 140"/><!--Upper Back / Torso--><path d="M 140 180 Q 130 185 128 200 Q 135 280 150 340 Q 175 355 200 355 Q 225 355 250 340 Q 265 280 272 200 Q 270 185 260 180 Z"/><!--Left Shoulder--><ellipse cx="128" cy="180" rx="22" ry="28"/><!--Right Shoulder--><ellipse cx="272" cy="180" rx="22" ry="28"/><!--Left Upper Arm--><ellipse cx="115" cy="240" rx="18" ry="45"/><!--Right Upper Arm--><ellipse cx="285" cy="240" rx="18" ry="45"/><!--Left Forearm--><ellipse cx="105" cy="320" rx="14" ry="42"/><!--Right Forearm--><ellipse cx="295" cy="320" rx="14" ry="42"/><!--Left Hand--><ellipse cx="100" cy="378" rx="12" ry="18"/><!--Right Hand--><ellipse cx="300" cy="378" rx="12" ry="18"/><!--Pelvis/Glutes--><path d="M 150 340 Q 175 350 200 355 Q 225 350 250 340 Q 258 370 245 395 Q 200 410 155 395 Q 142 370 150 340"/><!--Left Thigh--><ellipse cx="175" cy="445" rx="28" ry="55"/><!--Right Thigh--><ellipse cx="225" cy="445" rx="28" ry="55"/><!--Left Knee--><ellipse cx="172" cy="500" rx="16" ry="16"/><!--Right Knee--><ellipse cx="228" cy="500" rx="16" ry="16"/><!--Left Lower Leg--><ellipse cx="170" cy="540" rx="16" ry="45"/><!--Right Lower Leg--><ellipse cx="230" cy="540" rx="16" ry="45"/><!--Left Heel/Foot--><ellipse cx="168" cy="588" rx="14" ry="8"/><!--Right Heel/Foot--><ellipse cx="232" cy="588" rx="14" ry="8"/></g><!--JOINT MARKERS--><g id="joints" fill="#94A3B8" opacity="0.6"><circle cx="200" cy="140" r="4"/><!--Neck--><circle cx="128" cy="180" r="4"/><!--Left shoulder--><circle cx="272" cy="180" r="4"/><!--Right shoulder--><circle cx="110" cy="285" r="3"/><!--Left elbow--><circle cx="290" cy="285" r="3"/><!--Right elbow--><circle cx="100" cy="358" r="3"/><!--Left wrist--><circle cx="300" cy="358" r="3"/><!--Right wrist--><circle cx="170" cy="370" r="4"/><!--Left hip--><circle cx="230" cy="370" r="4"/><!--Right hip--><circle cx="172" cy="500" r="3"/><!--Left knee--><circle cx="228" cy="500" r="3"/><!--Right knee--><circle cx="168" cy="580" r="3"/><!--Left ankle--><circle cx="232" cy="580" r="3"/><!--Right ankle--></g><!--Spine guide (hidden by default)--><path id="spine" d="M 200 100 Q 200 200 200 340" stroke="#334155" stroke-width="0.5" stroke-dasharray="5,5" opacity="0"/></svg>