<svg viewBox="0 0 400 600" xmlns="http://www.w3.org/2000/svg"><!--Body Type: Adult Female
    View: Side (Right-facing)
    Purpose: Anatomical reference with muscle activation overlay capability
    Proportions: 7.5-head canon, narrower shoulders, wider hips, natural curves--><defs><linearGradient id="figureGrad" x1="0%" y1="0%" x2="0%" y2="100%"><stop offset="0%" stop-color="#475569"/><stop offset="100%" stop-color="#334155"/></linearGradient><linearGradient id="activationMax" x1="0%" y1="0%" x2="100%" y2="100%"><stop offset="0%" stop-color="#EF4444" stop-opacity="0.85"/><stop offset="100%" stop-color="#DC2626" stop-opacity="0.65"/></linearGradient><linearGradient id="activationHigh" x1="0%" y1="0%" x2="100%" y2="100%"><stop offset="0%" stop-color="#F97316" stop-opacity="0.75"/><stop offset="100%" stop-color="#EA580C" stop-opacity="0.55"/></linearGradient><linearGradient id="activationMed" x1="0%" y1="0%" x2="100%" y2="100%"><stop offset="0%" stop-color="#FB923C" stop-opacity="0.65"/><stop offset="100%" stop-color="#F97316" stop-opacity="0.45"/></linearGradient><linearGradient id="activationLow" x1="0%" y1="0%" x2="100%" y2="100%"><stop offset="0%" stop-color="#14B8A6" stop-opacity="0.55"/><stop offset="100%" stop-color="#0D9488" stop-opacity="0.35"/></linearGradient><filter id="muscleGlow" x="-50%" y="-50%" width="200%" height="200%"><feGaussianBlur stdDeviation="4" result="blur"/><feMerge><feMergeNode in="blur"/><feMergeNode in="SourceGraphic"/></feMerge></filter><filter id="softShadow" x="-20%" y="-20%" width="140%" height="140%"><feDropShadow dx="0" dy="2" stdDeviation="3" flood-color="#000" flood-opacity="0.3"/></filter></defs><!--MUSCLE LAYER - Side View Female--><g id="muscles" opacity="0" class="muscle-layer"><!--Trapezius--><path id="muscle-trapezius-side" class="muscle" data-muscle="trapezius" d="M 188 125 Q 208 118 220 135 Q 228 155 218 172 Q 200 176 188 165 Q 180 148 188 125" fill="url(#activationMed)" filter="url(#muscleGlow)"/><!--Deltoid (smaller, more rounded)--><ellipse id="muscle-deltoid-side" class="muscle" data-muscle="deltoid" cx="168" cy="178" rx="22" ry="18" fill="url(#activationHigh)" filter="url(#muscleGlow)"/><!--Pectoralis Major (smaller, different shape)--><path id="muscle-chest-side" class="muscle" data-muscle="pectoralis-major" d="M 175 188 Q 192 185 200 205 Q 205 235 192 255 Q 175 260 168 245 Q 162 220 175 188" fill="url(#activationHigh)" filter="url(#muscleGlow)"/><!--Latissimus Dorsi--><path id="muscle-lats-side" class="muscle" data-muscle="latissimus-dorsi" d="M 215 205 Q 232 212 238 248 Q 242 285 232 320 Q 215 328 208 305 Q 202 260 215 205" fill="url(#activationMax)" filter="url(#muscleGlow)"/><!--Biceps (more slender)--><ellipse id="muscle-biceps-side" class="muscle" data-muscle="biceps" cx="145" cy="215" rx="12" ry="28" fill="url(#activationHigh)" filter="url(#muscleGlow)" transform="rotate(-12 145 215)"/><!--Triceps--><ellipse id="muscle-triceps-side" class="muscle" data-muscle="triceps" cx="158" cy="218" rx="11" ry="30" fill="url(#activationHigh)" filter="url(#muscleGlow)" transform="rotate(-8 158 218)"/><!--Forearm Flexors--><ellipse id="muscle-forearm-side" class="muscle" data-muscle="forearm-flexors" cx="125" cy="275" rx="10" ry="30" fill="url(#activationMed)" filter="url(#muscleGlow)" transform="rotate(-5 125 275)"/><!--Rectus Abdominis--><path id="muscle-abs-side" class="muscle" data-muscle="rectus-abdominis" d="M 188 265 Q 202 260 208 275 Q 212 318 205 360 Q 195 368 188 362 Q 182 320 188 265" fill="url(#activationMed)" filter="url(#muscleGlow)"/><!--External Obliques--><path id="muscle-obliques-side" class="muscle" data-muscle="external-obliques" d="M 208 282 Q 220 278 225 298 Q 228 335 222 362 Q 212 370 208 358 Q 205 320 208 282" fill="url(#activationLow)" filter="url(#muscleGlow)"/><!--Erector Spinae--><path id="muscle-erector-side" class="muscle" data-muscle="erector-spinae" d="M 222 205 Q 230 208 234 230 Q 238 285 235 340 Q 230 358 224 355 Q 218 295 222 205" fill="url(#activationMed)" filter="url(#muscleGlow)"/><!--Gluteus Maximus (larger, more prominent)--><path id="muscle-glutes-side" class="muscle" data-muscle="gluteus-maximus" d="M 218 365 Q 258 358 272 395 Q 278 445 258 475 Q 222 485 210 455 Q 202 410 218 365" fill="url(#activationMax)" filter="url(#muscleGlow)"/><!--Quadriceps--><path id="muscle-quads-side" class="muscle" data-muscle="quadriceps" d="M 182 420 Q 198 412 208 432 Q 218 478 212 525 Q 195 538 182 528 Q 172 482 182 420" fill="url(#activationMax)" filter="url(#muscleGlow)"/><!--Hamstrings--><path id="muscle-hamstrings-side" class="muscle" data-muscle="hamstrings" d="M 218 445 Q 238 440 244 468 Q 248 508 240 538 Q 225 548 215 535 Q 212 498 218 445" fill="url(#activationHigh)" filter="url(#muscleGlow)"/><!--Gastrocnemius (calf)--><ellipse id="muscle-calf-side" class="muscle" data-muscle="gastrocnemius" cx="222" cy="565" rx="15" ry="35" fill="url(#activationHigh)" filter="url(#muscleGlow)" transform="rotate(5 222 565)"/><!--Tibialis Anterior--><ellipse id="muscle-tibialis-side" class="muscle" data-muscle="tibialis-anterior" cx="195" cy="565" rx="10" ry="30" fill="url(#activationLow)" filter="url(#muscleGlow)"/></g><!--FIGURE LAYER - Side View Female Body--><g id="figure" fill="url(#figureGrad)" stroke="#64748B" stroke-width="1.5" filter="url(#softShadow)"><!--Head--><ellipse cx="200" cy="72" rx="32" ry="40"/><!--Hair indication (ponytail)--><path d="M 225 55 Q 245 60 255 85 Q 260 120 250 150 Q 235 145 230 110 Q 228 80 225 55" opacity="0.8"/><!--Ear--><ellipse cx="222" cy="72" rx="6" ry="12"/><!--Neck (more slender)--><path d="M 188 108 Q 182 118 186 132 L 212 132 Q 220 118 216 108 Q 208 110 200 110 Q 192 110 188 108"/><!--Trapezius/Upper Back--><path d="M 212 132 Q 228 140 232 158 Q 235 175 228 188 L 212 182 Q 218 165 212 132"/><!--Shoulder (narrower)--><ellipse cx="172" cy="178" rx="25" ry="20"/><!--Chest/Torso (feminine contours)--><path d="M 172 188 Q 202 180 212 188 Q 225 205 222 240 Q 215 270 198 285 Q 178 292 168 272 Q 155 245 165 210 Q 168 195 172 188"/><!--Upper Back with natural curve--><path d="M 212 182 Q 230 192 238 235 Q 242 275 238 320 Q 232 352 224 368 L 215 368 Q 222 335 225 280 Q 228 235 212 182"/><!--Waist (narrower)--><path d="M 198 285 Q 215 280 224 295 Q 230 330 225 365 L 198 375 Q 188 340 198 285"/><!--Lower Back/Hip (wider, more curved)--><path d="M 225 365 Q 252 368 270 405 Q 280 455 268 490 Q 245 502 222 498 Q 205 475 198 445 Q 192 410 198 375 L 225 365"/><!--Glutes (more prominent)--><path d="M 225 395 Q 275 385 282 440 Q 285 490 262 515 Q 232 525 218 502 Q 210 460 225 395"/><!--Upper Arm (more slender)--><ellipse cx="150" cy="215" rx="14" ry="40" transform="rotate(-12 150 215)"/><!--Elbow--><circle cx="135" cy="255" r="10"/><!--Forearm--><ellipse cx="125" cy="295" rx="11" ry="35" transform="rotate(-5 125 295)"/><!--Hand (smaller)--><ellipse cx="115" cy="345" rx="10" ry="18"/><!--Thigh (fuller)--><path d="M 198 445 Q 175 455 172 495 Q 170 540 178 575 Q 200 585 225 575 Q 248 540 252 495 Q 255 460 238 445 Q 218 438 198 445"/><!--Knee--><ellipse cx="202" cy="578" rx="20" ry="16"/><!--Lower Leg (more tapered)--><path d="M 185 588 Q 175 602 178 648 Q 182 695 188 725 Q 202 735 222 730 Q 242 705 245 650 Q 248 605 235 590 Q 212 585 185 588"/><!--Ankle (more slender)--><ellipse cx="210" cy="728" rx="15" ry="10"/><!--Foot (smaller, more arched)--><path d="M 188 732 Q 162 738 152 750 Q 148 765 162 775 Q 198 780 225 770 Q 235 758 228 742 Q 218 735 188 732"/></g><!--JOINT MARKERS--><g id="joints" fill="#94A3B8" opacity="0.5"><circle cx="200" cy="132" r="4"/><!--Neck--><circle cx="172" cy="178" r="4"/><!--Shoulder--><circle cx="135" cy="255" r="4"/><!--Elbow--><circle cx="115" cy="330" r="3"/><!--Wrist--><circle cx="218" cy="430" r="5"/><!--Hip--><circle cx="202" cy="578" r="4"/><!--Knee--><circle cx="210" cy="728" r="4"/><!--Ankle--></g><!--POSTURE LINE--><line id="posture" x1="200" y1="32" x2="208" y2="775" stroke="#14B8A6" stroke-width="1" stroke-dasharray="6,4" opacity="0.3"/></svg>